<?xml version="1.0" standalone="no"?>
<!DOCTYPE svg PUBLIC "-//W3C//DTD SVG 20010904//EN"
 "http://www.w3.org/TR/2001/REC-SVG-20010904/DTD/svg10.dtd">
<svg version="1.0" xmlns="http://www.w3.org/2000/svg"
 width="1517.000000pt" height="1517.000000pt" viewBox="0 0 1517.000000 1517.000000"
 preserveAspectRatio="xMidYMid meet">
<metadata>
Created by potrace 1.11, written by Peter Selinger 2001-2013
</metadata>
<g transform="translate(0.000000,1517.000000) scale(0.100000,-0.100000)"
fill="#000000" stroke="none">
<path d="M2655 15154 c-229 -28 -483 -89 -702 -169 -54 -20 -179 -76 -279
-125 -817 -402 -1409 -1157 -1608 -2050 -14 -63 -33 -169 -43 -235 -17 -114
-18 -353 -18 -4980 0 -5237 -3 -4911 52 -5185 91 -453 286 -874 583 -1260 110
-143 402 -429 552 -541 377 -281 776 -461 1218 -549 294 -59 -46 -55 5180 -55
4596 0 4831 1 4955 18 360 50 665 145 978 305 286 145 528 322 763 556 476
475 767 1063 861 1741 17 124 18 359 18 4955 0 5226 4 4886 -55 5180 -88 442
-268 841 -549 1218 -112 150 -398 442 -541 552 -379 292 -801 489 -1239 579
-290 60 159 55 -5156 57 -4158 2 -4867 0 -4970 -12z m3730 -4666 c3 -13 210
-1269 461 -2793 376 -2286 455 -2783 452 -2845 -4 -94 -29 -145 -112 -235
l-61 -66 -1752 3 -1753 3 281 513 281 512 894 0 c492 0 894 3 895 8 1 18 -547
3462 -551 3462 -3 -1 -559 -1012 -1235 -2248 l-1230 -2247 -634 -3 c-589 -2
-633 -1 -627 15 4 9 725 1350 1602 2980 l1596 2963 744 0 744 0 5 -22z m5795
12 c346 -25 602 -88 832 -207 414 -214 595 -593 575 -1203 -16 -506 -115 -863
-337 -1221 -283 -457 -784 -845 -1335 -1035 l-103 -36 17 -41 c10 -23 226
-505 481 -1072 254 -566 473 -1054 486 -1083 l23 -52 -607 0 -607 0 -639 1484
c-352 817 -640 1488 -639 1493 0 14 136 102 183 118 31 11 108 19 250 25 302
13 498 45 715 116 375 124 614 316 773 623 95 183 132 322 132 494 0 176 -35
263 -155 382 -86 87 -157 128 -275 162 -61 17 -124 18 -960 18 l-894 0 -523
-2455 c-287 -1350 -522 -2456 -523 -2457 0 -2 -271 -3 -601 -3 l-602 0 6 33
c5 29 1250 5854 1262 5905 l5 22 1458 0 c885 0 1514 -4 1602 -10z"/>
</g>
</svg>
